<mxfile host="app.diagrams.net" modified="2021-08-22T12:20:43.831Z" agent="5.0 (Windows NT 10.0; Win64; x64) AppleWebKit/537.36 (KHTML, like Gecko) Chrome/92.0.4515.159 Safari/537.36" etag="_ifLviM4vBFEdrQHpnrb" version="14.9.8" type="github">
  <diagram id="wiAycF_GsnFfANhYFL78" name="Page-1">
    <mxGraphModel dx="2377" dy="835" grid="1" gridSize="10" guides="1" tooltips="1" connect="1" arrows="1" fold="1" page="1" pageScale="1" pageWidth="827" pageHeight="1169" math="0" shadow="0">
      <root>
        <mxCell id="0" />
        <mxCell id="1" parent="0" />
        <mxCell id="kQObMEiAvPIDihUWGbMi-3" value="" style="edgeStyle=orthogonalEdgeStyle;rounded=0;orthogonalLoop=1;jettySize=auto;html=1;entryX=0;entryY=0.5;entryDx=0;entryDy=0;" edge="1" parent="1" source="kQObMEiAvPIDihUWGbMi-1" target="kQObMEiAvPIDihUWGbMi-2">
          <mxGeometry relative="1" as="geometry" />
        </mxCell>
        <mxCell id="kQObMEiAvPIDihUWGbMi-4" style="edgeStyle=orthogonalEdgeStyle;rounded=0;orthogonalLoop=1;jettySize=auto;html=1;" edge="1" parent="1" source="kQObMEiAvPIDihUWGbMi-1">
          <mxGeometry relative="1" as="geometry">
            <mxPoint x="270" y="220" as="targetPoint" />
          </mxGeometry>
        </mxCell>
        <mxCell id="kQObMEiAvPIDihUWGbMi-9" style="edgeStyle=orthogonalEdgeStyle;rounded=0;orthogonalLoop=1;jettySize=auto;html=1;entryX=0;entryY=0.5;entryDx=0;entryDy=0;" edge="1" parent="1" source="kQObMEiAvPIDihUWGbMi-1" target="kQObMEiAvPIDihUWGbMi-6">
          <mxGeometry relative="1" as="geometry" />
        </mxCell>
        <mxCell id="kQObMEiAvPIDihUWGbMi-1" value="直接内存的问题" style="rounded=0;whiteSpace=wrap;html=1;" vertex="1" parent="1">
          <mxGeometry x="80" y="190" width="120" height="60" as="geometry" />
        </mxCell>
        <mxCell id="kQObMEiAvPIDihUWGbMi-2" value="地址空间不隔离" style="rounded=0;whiteSpace=wrap;html=1;" vertex="1" parent="1">
          <mxGeometry x="270" y="70" width="120" height="60" as="geometry" />
        </mxCell>
        <mxCell id="kQObMEiAvPIDihUWGbMi-5" value="内存使用效率低" style="rounded=0;whiteSpace=wrap;html=1;" vertex="1" parent="1">
          <mxGeometry x="270" y="190" width="120" height="60" as="geometry" />
        </mxCell>
        <mxCell id="kQObMEiAvPIDihUWGbMi-6" value="程序运行地址不确定" style="rounded=0;whiteSpace=wrap;html=1;" vertex="1" parent="1">
          <mxGeometry x="270" y="310" width="120" height="60" as="geometry" />
        </mxCell>
        <mxCell id="kQObMEiAvPIDihUWGbMi-13" style="edgeStyle=orthogonalEdgeStyle;rounded=0;orthogonalLoop=1;jettySize=auto;html=1;" edge="1" parent="1" source="kQObMEiAvPIDihUWGbMi-10" target="kQObMEiAvPIDihUWGbMi-12">
          <mxGeometry relative="1" as="geometry" />
        </mxCell>
        <mxCell id="kQObMEiAvPIDihUWGbMi-15" value="" style="edgeStyle=orthogonalEdgeStyle;rounded=0;orthogonalLoop=1;jettySize=auto;html=1;" edge="1" parent="1" source="kQObMEiAvPIDihUWGbMi-10" target="kQObMEiAvPIDihUWGbMi-14">
          <mxGeometry relative="1" as="geometry" />
        </mxCell>
        <mxCell id="kQObMEiAvPIDihUWGbMi-10" value="分段" style="rounded=0;whiteSpace=wrap;html=1;" vertex="1" parent="1">
          <mxGeometry x="270" y="472.5" width="70" height="30" as="geometry" />
        </mxCell>
        <mxCell id="kQObMEiAvPIDihUWGbMi-12" value="&lt;h1&gt;解决的问题&lt;/h1&gt;&lt;div&gt;1. 地址空间隔离问题&lt;/div&gt;&lt;div&gt;2. 程序运行孔家不确定问题&lt;/div&gt;" style="text;html=1;strokeColor=none;fillColor=none;spacing=5;spacingTop=-20;whiteSpace=wrap;overflow=hidden;rounded=0;" vertex="1" parent="1">
          <mxGeometry x="420" y="440" width="170" height="95" as="geometry" />
        </mxCell>
        <mxCell id="kQObMEiAvPIDihUWGbMi-19" value="" style="edgeStyle=orthogonalEdgeStyle;rounded=0;orthogonalLoop=1;jettySize=auto;html=1;" edge="1" parent="1" source="kQObMEiAvPIDihUWGbMi-14" target="kQObMEiAvPIDihUWGbMi-18">
          <mxGeometry relative="1" as="geometry" />
        </mxCell>
        <mxCell id="kQObMEiAvPIDihUWGbMi-14" value="分页" style="rounded=0;whiteSpace=wrap;html=1;" vertex="1" parent="1">
          <mxGeometry x="270" y="710" width="70" height="30" as="geometry" />
        </mxCell>
        <mxCell id="kQObMEiAvPIDihUWGbMi-17" value="&lt;h1&gt;具体闪现&lt;/h1&gt;&lt;div&gt;1. 早期处理器支持4kB或者4MB的页大小&lt;/div&gt;&lt;div&gt;2. 虚拟页（VP）和物理页（PP）&lt;/div&gt;&lt;div&gt;3. 页错误（Page Fault）触发操作系统接管进程，操作系统进行对应页的读取操作&lt;/div&gt;&lt;div&gt;4. 虚拟存储需要依靠硬件来实现，一般使用MMU（Memory Management Unit）进行页映射&lt;/div&gt;&lt;div&gt;5. MMU一般集成在CPU内部&lt;/div&gt;&lt;div&gt;&lt;br&gt;&lt;/div&gt;&lt;div&gt;&lt;br&gt;&lt;/div&gt;" style="text;html=1;strokeColor=none;fillColor=none;spacing=5;spacingTop=-20;whiteSpace=wrap;overflow=hidden;rounded=0;" vertex="1" parent="1">
          <mxGeometry x="-250" y="630" width="480" height="160" as="geometry" />
        </mxCell>
        <mxCell id="kQObMEiAvPIDihUWGbMi-18" value="&lt;h1&gt;解决的问题&lt;/h1&gt;&lt;div&gt;3. 内存的使用效率问题&lt;/div&gt;" style="text;html=1;strokeColor=none;fillColor=none;spacing=5;spacingTop=-20;whiteSpace=wrap;overflow=hidden;rounded=0;" vertex="1" parent="1">
          <mxGeometry x="414" y="677.5" width="170" height="95" as="geometry" />
        </mxCell>
        <mxCell id="kQObMEiAvPIDihUWGbMi-20" value="线程" style="rounded=0;whiteSpace=wrap;html=1;" vertex="1" parent="1">
          <mxGeometry x="-210" y="940" width="95" height="30" as="geometry" />
        </mxCell>
        <mxCell id="kQObMEiAvPIDihUWGbMi-21" value="解决的问题" style="text;html=1;strokeColor=none;fillColor=none;align=center;verticalAlign=middle;whiteSpace=wrap;rounded=0;" vertex="1" parent="1">
          <mxGeometry x="420" y="790" width="110" height="30" as="geometry" />
        </mxCell>
      </root>
    </mxGraphModel>
  </diagram>
</mxfile>
